<?xml version="1.0" encoding="utf-8"?>
<!-- Generator: Adobe Illustrator 21.0.2, SVG Export Plug-In . SVG Version: 6.00 Build 0)  -->
<svg version="1.1" id="Layer_1" xmlns="http://www.w3.org/2000/svg" xmlns:xlink="http://www.w3.org/1999/xlink" x="0px" y="0px"
	 viewBox="0 0 480 480" style="enable-background:new 0 0 480 480;" xml:space="preserve">
<style type="text/css">
	.st0{fill:#FFFFFF;}
	.st1{fill:#0C7F99;}
</style>
<path
   id="path4"
   d="m 163.36523,19.000863 c 0,4.2 -1.4,8.2 -3.7,11.3 l -30.4,0.3 c -2.6,-3.1 -4,-7.3 -4,-11.6 0,-10.4999996 8.5,-18.99999963586 19,-18.99999963586 10.6,-0.10000000414 19.1,8.50000003586 19.1,18.99999963586 z"
   class="st0" />
<path
   id="path6"
   d="m 218.36523,19.000863 c 0,4.2 -1.4,8.2 -3.7,11.3 l -30.4,0.3 c -2.6,-3.1 -4,-7.3 -4,-11.6 0,-10.4999996 8.5,-18.99999963586 19,-18.99999963586 10.6,-0.10000000414 19.1,8.50000003586 19.1,18.99999963586 z"
   class="st0" />
<path
   id="path8"
   d="m 149.76523,4.1008634 c -1.3,0.1 -2.3,1.1 -2.3,2.4 0,1.3 1.1,2.4 2.4,2.4 1.3,0 2.4,-1.1 2.4,-2.4 0,-1.3 -1.1,-2.4 -2.4,-2.4 0,0 -0.1,0 -0.1,0 l 2.9,-1 c 4.3,0 7.7,3.5 7.7,7.6999996 0,4.2 -3.5,7.7 -7.7,7.7 -4.2,0 -7.7,-3.5 -7.7,-7.7 0,-4.1999996 3.5,-7.6999996 7.7,-7.6999996" />
<path
   id="path10"
   d="m 204.76523,4.1008634 c -1.3,0.1 -2.3,1.1 -2.3,2.4 0,1.3 1.1,2.4 2.4,2.4 1.3,0 2.4,-1.1 2.4,-2.4 0,-1.3 -1.1,-2.4 -2.4,-2.4 0,0 -0.1,0 -0.1,0 l 2.9,-1 c 4.3,0 7.7,3.5 7.7,7.6999996 0,4.2 -3.5,7.7 -7.7,7.7 -4.2,0 -7.7,-3.5 -7.7,-7.7 0,-4.1999996 3.5,-7.6999996 7.7,-7.6999996" />


<path class="st1" d="M 159.66523,30.300863 C 106.55404,30.449216 53.440454,30.009021 0.33125316,30.648523 1.5678895,63.348049 -7.3654581,55.266794 16.934824,55.130205 c 68.375425,0.214787 136.751246,0.227263 205.126886,0.324958 1.194,13.913972 0.52001,15.525484 1.20118,23.257122 V 193.74227 c -22.64148,24.86315 -50.65347,46.09146 -82.66013,57.11555 -17.97408,6.29832 -42.207258,4.45182 -52.477902,-13.83555 -9.498811,-16.60269 -9.303636,-37.14936 -5.909095,-55.42509 10.806506,-37.96254 46.387227,-61.67241 88.363537,-64.32142 13.09049,0.4184 21.40201,1.417 11.38452,8.28492 -27.3938,21.31198 -51.88336,54.17279 -46.57197,90.75245 0.87729,6.78761 3.66399,22.50287 6.41352,7.67746 10.87331,-31.12053 27.21531,-62.62012 55.55209,-81.02955 8.08024,-9.75927 5.7932,-19.03011 6.80696,-48.867644 -1.54479,-13.5043 2.11514,-10.802511 -38.54803,-9.779729 -53.91572,5.226509 -107.818549,35.949623 -130.994584,86.321523 -9.63768,23.1107 -13.659767,49.50444 -8.187428,74.14014 5.107728,24.25042 26.157102,41.96282 49.692532,47.46205 42.01821,11.42541 84.48201,-7.44058 119.29465,-29.87317 12.20717,-4.2608 28.17392,-23.89677 28.29641,-8.68424 -1.2059,15.97482 0.0871,31.82106 -0.67345,47.78793 2.88922,14.30532 15.22159,-0.0147 27.27667,-7.71222 18.10131,-14.51875 21.24604,-11.13571 22.19476,-29.70693 0.41218,-68.98241 -0.19642,-137.9674 0.41091,-206.949047 54.08549,-1.699462 45.6769,2.496619 47.66626,-7.629532 1.32996,-23.622747 8.04991,-18.984558 -16.68198,-18.542417 -47.99132,-1.110469 -96.1732,-0.418314 -144.24591,-0.626891 z" style="display:inline;fill:#fd0000;stroke-width:0.263403"
    />
<path
   id="path14" style="fill:#ffffff"
   d="m 166.26771,40.584473 c 5.5,0 1.9,0.1 13.5,0 10.3,-0.1 12.4,-0.1 15.7,-0.2 0,0 -0.3,-3.1 -0.3,-3.1 -3.7,0.1 -9.3,0.2 -14.7,0.2 -3.9,0 -8.5,0 -14.6,0" />

</svg>

