<?xml version="1.0" standalone="no"?>
<!DOCTYPE svg PUBLIC "-//W3C//DTD SVG 20010904//EN"
 "http://www.w3.org/TR/2001/REC-SVG-20010904/DTD/svg10.dtd">
<svg version="1.0" xmlns="http://www.w3.org/2000/svg"
 width="980.000000pt" height="982.000000pt" viewBox="0 0 980.000000 982.000000"
 preserveAspectRatio="xMidYMid meet">

<g transform="translate(0.000000,982.000000) scale(0.100000,-0.100000)"
fill="#000000" stroke="none">
<path d="M8507 9794 c-104 -19 -211 -55 -326 -110 -89 -44 -104 -56 -340 -282
-334 -321 -5249 -5236 -5587 -5587 -628 -653 -747 -797 -873 -1052 -74 -148
-111 -244 -212 -541 -160 -472 -214 -554 -695 -1058 -316 -332 -418 -449 -444
-507 -48 -108 -35 -285 31 -418 58 -115 140 -177 284 -214 103 -26 250 -15
323 24 60 32 237 192 668 604 108 103 225 209 260 235 144 107 328 190 659
300 222 73 383 141 543 227 262 140 345 207 772 616 370 355 3073 3044 4430
4405 1106 1110 1479 1493 1597 1639 66 82 132 199 164 294 48 139 50 478 4
635 -104 358 -370 632 -725 750 -171 56 -362 71 -533 40z m427 -339 c78 -21
198 -84 266 -140 182 -149 272 -359 273 -635 1 -198 -34 -301 -149 -451 -51
-66 -378 -412 -395 -418 -6 -2 -68 53 -138 122 -214 211 -291 262 -366 237
-20 -7 -52 -27 -71 -46 -28 -29 -34 -42 -34 -77 0 -67 46 -132 217 -307 l157
-161 -282 -282 -281 -281 -153 150 c-223 218 -280 249 -365 204 -72 -38 -99
-93 -78 -160 15 -48 70 -115 217 -266 81 -83 148 -156 148 -161 0 -9 -543
-545 -559 -550 -3 -2 -77 65 -164 147 -182 173 -251 230 -278 230 -31 0 -91
-35 -129 -74 -71 -74 -40 -143 158 -349 64 -67 132 -139 151 -160 l35 -37
-269 -270 c-149 -149 -274 -270 -278 -270 -5 0 -77 63 -160 141 -184 170 -259
229 -296 229 -33 0 -107 -46 -144 -89 -35 -42 -34 -73 3 -138 29 -50 182 -224
294 -333 l56 -55 -277 -277 -277 -277 -153 150 c-168 164 -256 229 -310 229
-54 0 -153 -106 -153 -164 0 -22 88 -126 247 -293 l142 -149 -282 -281 -282
-281 -155 150 c-171 166 -239 217 -298 225 -33 4 -44 1 -75 -27 -55 -48 -80
-95 -74 -135 9 -52 53 -109 221 -282 l155 -159 -284 -284 -284 -284 -153 150
c-228 225 -274 252 -356 212 -73 -35 -102 -127 -65 -206 9 -21 92 -114 185
-207 l167 -171 -277 -277 -278 -278 -135 128 c-223 214 -290 257 -364 233 -44
-14 -100 -68 -109 -104 -18 -71 37 -156 237 -363 l128 -133 -45 -39 c-188
-163 -454 -324 -701 -425 -60 -24 -204 -76 -320 -114 -328 -108 -484 -184
-709 -341 -61 -42 -115 -79 -121 -83 -7 -4 -57 39 -123 105 l-111 112 95 140
c150 220 224 375 334 700 80 233 130 356 210 515 99 193 174 304 291 427 744
784 5238 5299 6127 6156 151 145 184 172 255 207 121 60 183 71 372 66 102 -3
181 -11 219 -21z"/>
<path d="M7755 8371 c-147 -85 -516 -444 -2550 -2482 -1494 -1497 -2100 -2113
-2246 -2282 -42 -48 -59 -76 -59 -96 0 -58 83 -141 140 -141 74 0 258 177
2349 2264 2100 2097 2403 2407 2512 2570 51 76 50 101 -4 154 -51 50 -74 52
-142 13z"/>
</g>
</svg>
